<?xml version="1.0" encoding="UTF-8" standalone="no"?>

<svg
   xmlns:dc="http://purl.org/dc/elements/1.1/"
   xmlns:cc="http://creativecommons.org/ns#"
   xmlns:rdf="http://www.w3.org/1999/02/22-rdf-syntax-ns#"
   xmlns:svg="http://www.w3.org/2000/svg"
   xmlns="http://www.w3.org/2000/svg"
   xmlns:sodipodi="http://sodipodi.sourceforge.net/DTD/sodipodi-0.dtd"
   xmlns:inkscape="http://www.inkscape.org/namespaces/inkscape"
   version="1.1"
   id="Layer_1"
   x="0px"
   y="0px"
   viewBox="0 0 546.1536 559.8005"
   enable-background="new 0 0 546.1536 559.8005"
   xml:space="preserve"
   inkscape:version="0.91 r13725"
   sodipodi:docname="Martian Man Vectorized.svg"><metadata
     id="metadata23"><rdf:RDF><cc:Work
         rdf:about=""><dc:format>image/svg+xml</dc:format><dc:type
           rdf:resource="http://purl.org/dc/dcmitype/StillImage" /></cc:Work></rdf:RDF></metadata><defs
     id="defs21"><filter
       inkscape:collect="always"
       style="color-interpolation-filters:sRGB"
       id="filter4190-5"
       x="-0.28920001"
       width="1.5784"
       y="-0.28920001"
       height="1.5784"><feGaussianBlur
         inkscape:collect="always"
         stdDeviation="19.91118"
         id="feGaussianBlur4192-8" /></filter></defs><sodipodi:namedview
     pagecolor="#ffffff"
     bordercolor="#666666"
     borderopacity="1"
     objecttolerance="10"
     gridtolerance="10"
     guidetolerance="10"
     inkscape:pageopacity="0"
     inkscape:pageshadow="2"
     inkscape:window-width="640"
     inkscape:window-height="480"
     id="namedview19"
     showgrid="false"
     inkscape:zoom="1.3825721"
     inkscape:cx="63.796242"
     inkscape:cy="185.57386"
     inkscape:current-layer="Layer_1" /><path
     style="fill:#fefefe"
     inkscape:connector-curvature="0"
     id="path5"
     d="m 488.2599,279.9003 c 0,72.3257 -0.0249,144.6513 0.0861,216.9768 0.005,3.0702 -0.6027,3.6737 -3.6725,3.6715 -141.0648,-0.0978 -282.1297,-0.0978 -423.1945,0 -3.0694,0.002 -3.6736,-0.6012 -3.6716,-3.6712 0.0975,-144.6512 0.0975,-289.3025 10e-5,-433.9537 -0.0021,-3.0691 0.6008,-3.6738 3.6711,-3.6717 141.0648,0.0979 282.1297,0.0978 423.1946,10e-5 3.0689,-0.0021 3.6777,0.6 3.6729,3.6711 -0.1111,72.3255 -0.0862,144.6513 -0.0862,216.9771 z m -38.9931,-16.2625 c -0.2039,-7.0079 -0.9808,-18.3023 -3.0464,-29.497 -8.5534,-46.3554 -30.532,-84.8485 -68.0072,-113.6984 -39.36,-30.3009 -84.1866,-41.9572 -133.4182,-36.0721 -39.4119,4.7113 -73.683,20.7105 -101.5483,49.1812 -49.0312,50.0963 -66.6815,129.2799 -44.5102,197.1848 10.1591,31.1148 27.1807,58.2974 47.9196,83.2563 22.1125,26.6122 47.0923,50.0358 78.0915,66.1481 19.6311,10.2036 40.3374,15.477 62.6513,11.2658 19.6398,-3.7064 36.1187,-13.6946 51.3574,-26.0407 28.0714,-22.7428 51.5513,-49.7042 71.9796,-79.3591 24.459,-35.5062 38.6009,-74.4758 38.5309,-122.3689 z" /><path
     style="fill:#1aa06b"
     inkscape:connector-curvature="0"
     id="path7"
     d="m 449.2668,263.6378 c 0.0699,47.8932 -14.0719,86.8628 -38.531,122.369 -20.4283,29.6549 -43.9083,56.6162 -71.9796,79.3591 -15.2387,12.3461 -31.7176,22.3343 -51.3574,26.0407 -22.3139,4.2112 -43.0202,-1.0623 -62.6513,-11.2658 -30.9992,-16.1123 -55.9789,-39.5359 -78.0915,-66.1481 -20.7389,-24.959 -37.7605,-52.1415 -47.9196,-83.2563 -22.1713,-67.9049 -4.521,-147.0885 44.5102,-197.1848 27.8653,-28.4707 62.1365,-44.4699 101.5483,-49.1812 49.2316,-5.8851 94.0582,5.7712 133.4182,36.0721 37.4752,28.8499 59.4538,67.343 68.0072,113.6984 2.0657,11.1945 2.8426,22.489 3.0465,29.4969 z m -8.4796,1.8283 c 0.5437,-9.1084 -0.8962,-20.9584 -3.1917,-32.6447 -5.3673,-27.3257 -16.3341,-52.1273 -33.2863,-74.4321 C 389.4163,138.7941 371.2567,123.2356 349.7366,111.655 314.5012,92.6939 276.7899,87.1204 237.5822,93.6808 c -39.5739,6.6217 -72.9532,25.2155 -98.0718,56.7582 -33.4733,42.0342 -46.2867,90.269 -40.3821,143.5759 3.1791,28.7014 13.7713,54.7695 28.5834,79.2325 16.108,26.6032 36.0972,49.9976 59.4725,70.5201 15.3266,13.4561 31.6587,25.3698 50.6368,33.2041 19.3517,7.9885 38.9832,10.2024 59.2544,3.1331 19.6538,-6.854 35.4226,-19.5785 50.3736,-33.2654 16.1715,-14.8044 30.6568,-31.2049 43.9824,-48.7396 12.1473,-15.9842 23.1105,-32.5063 31.6911,-50.6627 11.8454,-25.0651 17.807,-51.3777 17.6647,-81.9709 z" /><path
     style="fill:#25e397"
     inkscape:connector-curvature="0"
     id="path9"
     d="m 440.7872,265.4661 c 0.1423,30.5932 -5.8193,56.9058 -17.6649,81.9708 -8.5806,18.1564 -19.5438,34.6785 -31.6911,50.6627 -13.3256,17.5347 -27.8109,33.9352 -43.9824,48.7396 -14.951,13.6869 -30.7198,26.4115 -50.3736,33.2654 -20.2711,7.0692 -39.9027,4.8554 -59.2544,-3.1331 -18.9781,-7.8343 -35.3102,-19.748 -50.6368,-33.2041 -23.3752,-20.5225 -43.3645,-43.9168 -59.4725,-70.5201 -14.8121,-24.463 -25.4043,-50.5311 -28.5834,-79.2325 -5.9045,-53.3069 6.9088,-101.5416 40.3821,-143.5759 25.1186,-31.5428 58.498,-50.1365 98.0718,-56.7582 39.2077,-6.5604 76.9191,-0.987 112.1544,17.9742 21.5201,11.5806 39.6797,27.1391 54.5726,46.7343 16.9522,22.3048 27.9191,47.1064 33.2863,74.4321 2.2957,11.6864 3.7356,23.5364 3.1919,32.6448 z m -155.1698,44.8832 c -0.0132,2.5347 -0.0853,5.0706 -0.0304,7.6038 0.487,22.4704 18.2841,38.2684 39.5342,37.9769 13.8641,-0.1901 27.0409,-3.8873 38.9829,-11.2113 5.3198,-3.2625 10.4713,-6.7991 15.6992,-10.2113 5.3577,-0.1599 10.7472,0.6371 16.0731,-0.4267 14.0481,-2.8059 21.655,-12.8882 27.2784,-24.8163 6.8264,-14.4799 9.3262,-30.107 10.1598,-45.8882 0.9801,-18.5524 -1.7383,-36.7485 -7.4513,-54.474 -6.6703,-20.6954 -17.1949,-38.9769 -31.7244,-55.3383 -13.5821,-15.2946 -29.1722,-27.6083 -47.2152,-36.8842 -26.0365,-13.3855 -53.6721,-19.4319 -83.0455,-18.1214 -15.1428,0.6756 -29.9241,2.8956 -44.208,7.7014 -38.1055,12.8207 -68.2086,35.9516 -89.4031,70.3793 -11.4368,18.5775 -18.1097,38.9308 -20.9116,60.3066 -1.7081,13.0311 -1.5074,26.3447 0.4431,39.5894 2.0791,14.1183 5.1771,27.8005 11.9931,40.4256 6.4846,12.0111 15.5796,20.2688 30.1844,20.2347 5.9616,4.1882 11.2483,9.2845 17.7035,12.8212 14.3773,7.8772 29.3144,13.3936 46.0671,10.5154 14.8025,-2.5431 25.7983,-10.2095 31.5301,-24.5615 3.2055,-8.0264 2.5978,-16.3892 2.4167,-24.7274 3.3292,-0.8017 6.7058,-0.985 10.1237,-0.9561 8.5998,0.0725 17.2002,0.0479 25.8002,0.0624 z"
     enable-background="new    " /><path
     style="fill:#9df0c9"
     inkscape:connector-curvature="0"
     id="path11"
     d="m 151.9764,337.1951 c -14.6048,0.0341 -23.6998,-8.2236 -30.1844,-20.2347 -6.8161,-12.6251 -9.914,-26.3073 -11.9931,-40.4256 -1.9505,-13.2448 -2.1511,-26.5584 -0.4431,-39.5894 2.8019,-21.3757 9.4748,-41.7291 20.9116,-60.3066 21.1945,-34.4276 51.2976,-57.5586 89.4031,-70.3793 14.2839,-4.8058 29.0652,-7.0258 44.208,-7.7014 29.3734,-1.3104 57.009,4.7359 83.0455,18.1214 18.043,9.2759 33.6331,21.5896 47.2152,36.8842 14.5294,16.3614 25.0541,34.6428 31.7244,55.3383 5.713,17.7255 8.4313,35.9216 7.4513,54.474 -0.8336,15.7812 -3.3334,31.4083 -10.1598,45.8882 -5.6234,11.9281 -13.2303,22.0104 -27.2784,24.8163 -5.3259,1.0638 -10.7154,0.2668 -16.0732,0.4276 3.9347,-4.0635 8.0811,-7.946 11.7647,-12.2267 10.8989,-12.6654 18.8148,-26.791 20.7242,-43.7652 2.8423,-25.2654 -13.0015,-44.8142 -38.77,-45.1142 -18.1844,-0.2117 -34.5178,5.7222 -49.0774,16.9066 -20.1307,15.4639 -34.6906,34.3302 -38.8274,60.0406 -8.6,-0.0144 -17.2004,0.0101 -25.8,-0.0625 -3.4179,-0.0289 -6.7945,0.1544 -10.123,0.9567 -0.1757,-0.2338 -0.461,-0.4464 -0.5132,-0.7059 -5.269,-26.1652 -21.0878,-44.6753 -43.1763,-58.185 -14.5344,-8.8895 -30.3515,-13.0639 -47.6856,-10.1758 -17.5677,2.927 -28.9984,16.5665 -31.5453,31.4088 -2.6404,15.3875 1.6463,29.1829 8.9477,42.3793 4.356,7.8734 10.4632,14.4385 16.2545,21.2303 z"
     enable-background="new    " /><path
     d="M 373.52148 233.40234 C 355.33708 233.19064 339.00491 239.12429 324.44531 250.30859 C 304.31461 265.77249 289.75389 284.63921 285.61719 310.34961 C 285.60399 312.88421 285.53289 315.42003 285.58789 317.95312 C 286.07489 340.42352 303.87099 356.22119 325.12109 355.92969 C 338.98519 355.73969 352.16152 352.04275 364.10352 344.71875 C 369.42332 341.45625 374.57503 337.91911 379.80273 334.50781 C 383.73743 330.44431 387.88466 326.56195 391.56836 322.28125 C 402.46716 309.61585 410.38347 295.48982 412.29297 278.51562 C 415.13527 253.25022 399.29008 233.70234 373.52148 233.40234 z M 167.91211 241.28125 C 164.76708 241.34166 161.5685 241.63622 158.31836 242.17773 C 140.75066 245.10473 129.32034 258.74364 126.77344 273.58594 C 124.13294 288.97344 128.42126 302.76844 135.72266 315.96484 C 140.07886 323.83814 146.18526 330.40351 151.97656 337.19531 C 157.93816 341.38351 163.22459 346.47893 169.67969 350.01562 C 184.05699 357.89283 198.99339 363.40945 215.74609 360.53125 C 230.54859 357.98815 241.54554 350.3228 247.27734 335.9707 C 250.48284 327.9443 249.87581 319.58164 249.69531 311.24414 C 249.51961 311.01034 249.23384 310.79661 249.18164 310.53711 C 243.91254 284.37191 228.09436 265.86322 206.00586 252.35352 C 194.19674 245.1308 181.54057 241.01947 167.91211 241.28125 z "
     id="path13" /><path
     style="opacity:0.4;fill:#ffffff;filter:url(#filter4190-5)"
     d="m 323.04556,258.11286 c -0.26602,0.19997 -0.53593,0.38835 -0.80078,0.5918 -20.1307,15.4639 -34.69142,34.33061 -38.82812,60.04101 -0.0132,2.5346 -0.0843,5.07043 -0.0293,7.60352 0.487,22.4704 18.2831,38.26806 39.5332,37.97656 4.71194,-0.0646 9.34146,-0.54437 13.87305,-1.42383 a 82.619003,82.619003 0 0 0 12.90234,-44.15625 82.619003,82.619003 0 0 0 -26.65039,-60.63281 z m -116.40234,4.44727 a 82.619003,82.619003 0 0 0 -22.18555,56.18554 82.619003,82.619003 0 0 0 17.5625,50.88282 c 3.7533,0.1727 7.58774,-0.0247 11.52539,-0.70118 14.80251,-2.5431 25.79945,-10.20844 31.53125,-24.56054 3.2055,-8.0264 2.59847,-16.38907 2.41797,-24.72657 -0.1757,-0.2338 -0.46147,-0.44753 -0.51367,-0.70703 -5.03926,-25.02385 -19.74385,-43.03072 -40.33789,-56.37304 z"
     id="circle17-4"
     inkscape:connector-curvature="0" /></svg>